<svg xmlns="http://www.w3.org/2000/svg" xmlns:xlink="http://www.w3.org/1999/xlink" viewBox="0 0 200.33 95.86"><defs><clipPath id="a"><rect width="92.42" height="95.86" fill="none"/></clipPath></defs><path d="M94.59,14.45V0H106V14.45Zm0,81.41V27.32H106V95.86Z" fill="#f4f4f4"/><path d="M176.45,95.86H165v-38q0-10.41-3.7-15.62A12.24,12.24,0,0,0,150.71,37a19.13,19.13,0,0,0-8.91,2.34,26.28,26.28,0,0,0-7.87,6.29A25.05,25.05,0,0,0,129,54.81V95.86H117.55V0H129V42.43A30.46,30.46,0,0,1,140,30.9a28.31,28.31,0,0,1,15-4.24,21.86,21.86,0,0,1,10.21,2.15,16.92,16.92,0,0,1,6.56,6.06,27.75,27.75,0,0,1,3.58,9.06,54.19,54.19,0,0,1,1.1,11.27Z" fill="#f4f4f4"/><path d="M188.89,14.45V0h11.44V14.45Zm0,81.41V27.32h11.44V95.86Z" fill="#f4f4f4"/><g clip-path="url(#a)"><polygon points="54.97 98.68 46.21 101.45 13.46 -2.82 22.22 -5.59 54.97 98.68" fill="#b71c1c"/><polygon points="39.5 95.86 0 95.86 -0.75 -1.63 8.01 -4.4 39.5 95.86" fill="#f4f4f4"/><polygon points="69.18 98.68 60.42 101.45 27.67 -2.82 36.43 -5.59 69.18 98.68" fill="#b71c1c"/><polygon points="83.39 98.68 74.63 101.45 41.88 -2.82 50.63 -5.59 83.39 98.68" fill="#b71c1c"/></g></svg>